<?xml version="1.0" encoding="UTF-8"?><svg id="Layer_2" xmlns="http://www.w3.org/2000/svg" viewBox="0 0 44 24.79"><defs><style>.cls-1{fill:#b389ac;}</style></defs><path class="cls-1" d="M0,14.08c.17-.52,.54-.84,1.01-1.11,2.77-1.58,5.57-3.11,8.59-4.17,.57-.2,1.27-.22,1.68-.59,.38-.35,.43-1.06,.67-1.59C13.73,2.47,18.09-.26,22.51,.02c4.77,.3,8.72,3.36,10.04,7.8,.1,.33,.25,.48,.58,.57,2.75,.78,5.31,2.02,7.81,3.39,.79,.43,1.54,.95,2.36,1.32,.94,.42,.92,2.05,0,2.54-2.38,1.26-4.81,2.39-7.39,3.18-.23,.07-.47,.21-.64,.38-3.26,3.15-7.13,5.04-11.64,5.51-3.81,.4-7.35-.57-10.66-2.41-1.57-.88-2.99-1.95-4.26-3.23-.11-.11-.28-.19-.44-.24-2.5-.75-4.88-1.8-7.17-3.05-.48-.26-.88-.57-1.09-1.09v-.6Zm39.77,.35c0-.06-.01-.11-.02-.17-2.22-1.22-4.48-2.33-6.9-3.11-.5-.16-.96-.16-1.46-.04-2.67,.63-5.37,1.12-8.13,1.25-3.71,.18-7.33-.42-10.91-1.31-.24-.06-.51-.06-.75,0-1.99,.55-3.86,1.42-5.7,2.35-.54,.27-1.06,.57-1.65,.88,.24,.12,.4,.21,.57,.28,1.89,.85,3.84,1.56,5.85,2.08,4.01,1.03,8.1,1.28,12.22,1.24,4.08-.05,8.12-.42,12.02-1.68,1.64-.53,3.24-1.19,4.86-1.78Zm-9.89-5.82c-.84-3.39-4.45-5.99-8.11-5.85-4.36,.16-6.99,3.38-7.6,5.87,5.23,1.36,10.46,1.31,15.71-.02Zm-.96,11.66c-4.62,.51-9.17,.51-13.74,0,2.88,2.24,10.3,2.26,13.74,0Z"/><path class="cls-1" d="M15.13,13.77c0,.78-.61,1.38-1.38,1.37-.75,0-1.36-.62-1.36-1.37,0-.76,.64-1.39,1.4-1.38,.76,.01,1.35,.61,1.35,1.37Z"/><path class="cls-1" d="M30.23,15.15c-.76-.03-1.33-.65-1.31-1.42,.03-.76,.66-1.35,1.41-1.32,.75,.03,1.36,.66,1.34,1.4-.02,.77-.66,1.37-1.44,1.34Z"/><path class="cls-1" d="M23.4,15.15c0,.76-.59,1.37-1.35,1.38-.77,.01-1.41-.62-1.4-1.38,.01-.75,.63-1.36,1.38-1.36,.76,0,1.36,.61,1.36,1.37Z"/></svg>